<svg xmlns="http://www.w3.org/2000/svg" viewBox="0 0 140 80"><defs><linearGradient id="shellGrad" x1="0" y1="0" x2="0" y2="1"><stop offset="0%" stop-color="#c5cdd6"/><stop offset="50%" stop-color="#9aa8b8"/><stop offset="100%" stop-color="#c5cdd6"/></linearGradient></defs><title>Heat Exchanger(换热器)</title><!-- 壳体 --><rect x="15" y="10" width="110" height="60" rx="6" fill="url(#shellGrad)" stroke="#5a6a7a" stroke-width="1.5"/><!-- 左封头 --><path d="M15,15 Q5,40 15,65" fill="#b0bcc8" stroke="#5a6a7a" stroke-width="1.5"/><!-- 右封头 --><path d="M125,15 Q135,40 125,65" fill="#b0bcc8" stroke="#5a6a7a" stroke-width="1.5"/><!-- 管束 --><line x1="20" y1="22" x2="120" y2="22" stroke="#5a6a7a" stroke-width="1.2"/><line x1="20" y1="32" x2="120" y2="32" stroke="#5a6a7a" stroke-width="1.2"/><line x1="20" y1="42" x2="120" y2="42" stroke="#5a6a7a" stroke-width="1.2"/><line x1="20" y1="52" x2="120" y2="52" stroke="#5a6a7a" stroke-width="1.2"/><line x1="20" y1="62" x2="120" y2="62" stroke="#5a6a7a" stroke-width="1.2"/><!-- 折流板 --><line x1="45" y1="12" x2="45" y2="55" stroke="#6a7a8a" stroke-width="2"/><line x1="75" y1="25" x2="75" y2="68" stroke="#6a7a8a" stroke-width="2"/><line x1="105" y1="12" x2="105" y2="55" stroke="#6a7a8a" stroke-width="2"/><!-- 左侧接管上 --><rect x="0" y="15" width="18" height="8" rx="2" fill="#8e9aab" stroke="#5a6a7a" stroke-width="1"/><!-- 左侧接管下 --><rect x="0" y="57" width="18" height="8" rx="2" fill="#8e9aab" stroke="#5a6a7a" stroke-width="1"/><!-- 右侧接管上 --><rect x="122" y="15" width="18" height="8" rx="2" fill="#8e9aab" stroke="#5a6a7a" stroke-width="1"/><!-- 右侧接管下 --><rect x="122" y="57" width="18" height="8" rx="2" fill="#8e9aab" stroke="#5a6a7a" stroke-width="1"/></svg>