<svg xmlns="http://www.w3.org/2000/svg" xmlns:xlink="http://www.w3.org/1999/xlink" viewBox="0 0 150 150"><defs><style>.cls-1,.cls-2{fill:none;}.cls-2{stroke:#fff;stroke-miterlimit:10;stroke-width:0.1px;}.cls-3{opacity:0;}.cls-4{fill:#000714;}.cls-5{opacity:0.1;fill:url(#新建图案);}.cls-6{fill:#a5b8d9;}.cls-7{fill:#7181a6;}.cls-8{fill:#cbdaf2;}.cls-9{opacity:0.2;}</style><pattern id="新建图案" data-name="新建图案" width="18.57" height="32.16" patternTransform="translate(1315.1 1196.96)" patternUnits="userSpaceOnUse" viewBox="0 0 18.57 32.16"><rect class="cls-1" width="18.57" height="32.16"/><polyline class="cls-2" points="18.57 21.44 18.57 32.16 18.57 42.88"/><polyline class="cls-2" points="9.29 26.8 18.57 32.16 27.85 37.51 27.85 37.52"/><polyline class="cls-2" points="9.29 37.52 9.29 37.51 18.57 32.16 27.85 26.8"/><polygon class="cls-2" points="27.85 37.52 27.85 26.8 18.57 21.44 9.28 26.8 9.28 37.52 18.57 42.88 27.85 37.52"/><polyline class="cls-2" points="0 21.44 0 32.16 0 42.88"/><polyline class="cls-2" points="-9.28 26.8 0 32.16 9.28 37.51 9.28 37.52"/><polyline class="cls-2" points="-9.28 37.52 -9.28 37.51 0 32.16 9.28 26.8"/><polygon class="cls-2" points="9.28 37.52 9.28 26.8 0 21.44 -9.29 26.8 -9.29 37.52 0 42.88 9.28 37.52"/><polyline class="cls-2" points="18.57 10.72 27.85 16.08 37.13 21.43 37.13 21.44"/><polyline class="cls-2" points="18.57 21.44 18.57 21.43 27.85 16.08 37.13 10.72"/><polygon class="cls-2" points="37.14 21.44 37.14 10.72 27.85 5.36 18.57 10.72 18.57 21.44 27.85 26.8 37.14 21.44"/><polyline class="cls-2" points="9.29 5.36 9.29 16.08 9.29 26.8"/><polyline class="cls-2" points="0.01 10.72 9.29 16.08 18.57 21.43 18.57 21.44"/><polyline class="cls-2" points="0.01 21.44 0.01 21.43 9.29 16.08 18.57 10.72"/><polygon class="cls-2" points="18.57 21.44 18.57 10.72 9.28 5.36 0 10.72 0 21.44 9.28 26.8 18.57 21.44"/><polyline class="cls-2" points="-18.56 10.72 -9.28 16.08 0 21.43 0 21.44"/><polyline class="cls-2" points="-18.56 21.44 -18.56 21.43 -9.28 16.08 0 10.72"/><polygon class="cls-2" points="0 21.44 0 10.72 -9.29 5.36 -18.57 10.72 -18.57 21.44 -9.29 26.8 0 21.44"/><polyline class="cls-2" points="18.57 -10.72 18.57 0 18.57 10.72"/><polyline class="cls-2" points="9.29 -5.36 18.57 0 27.85 5.35 27.85 5.36"/><polyline class="cls-2" points="9.29 5.36 9.29 5.35 18.57 0 27.85 -5.36"/><polygon class="cls-2" points="27.85 5.36 27.85 -5.36 18.57 -10.72 9.28 -5.36 9.28 5.36 18.57 10.72 27.85 5.36"/><polyline class="cls-2" points="0 -10.72 0 0 0 10.72"/><polyline class="cls-2" points="-9.28 -5.36 0 0 9.28 5.35 9.28 5.36"/><polyline class="cls-2" points="-9.28 5.36 -9.28 5.35 0 0 9.28 -5.36"/><polygon class="cls-2" points="9.28 5.36 9.28 -5.36 0 -10.72 -9.29 -5.36 -9.29 5.36 0 10.72 9.28 5.36"/></pattern></defs><title>墙体2</title><g id="图层_2" data-name="图层 2"><g id="图元"><g id="墙体2"><g class="cls-3"><rect class="cls-4" width="150" height="150"/><rect id="网格" class="cls-5" width="150" height="150"/></g><g id="编组"><path class="cls-6" d="M43.08,45.2V150L114,109.06V4.24Z"/><polygon class="cls-7" points="35.98 40.91 35.98 145.9 43.09 150 43.09 45.07 43.09 45.07 35.98 40.91"/><polygon class="cls-8" points="106.84 0 114.03 4.24 43.08 45.2 35.98 40.91 106.84 0"/><g class="cls-9"><path d="M57.3,79.65c-.17.36-.38.77-.63,1.22s-.52.92-.81,1.4-.59.93-.88,1.38-.57.86-.82,1.22l-2.28-1.09c.27-.35.55-.75.85-1.18s.59-.88.87-1.32.53-.89.76-1.32.42-.82.57-1.15Zm3.87-1.79v4A4,4,0,0,1,61,83a1.58,1.58,0,0,1-.44.7,2.26,2.26,0,0,1-.78.45q-.48.16-1.17.33l-1.14.28-.81-2.52.87-.21a2.18,2.18,0,0,0,.7-.26.61.61,0,0,0,.2-.54v-3L53,78.93l.56-7.52,1.92-.27,2-.33,2.08-.38,2-.4c.64-.13,1.25-.26,1.81-.4s1.08-.26,1.52-.38l.54,2.56-2,.46c-.74.16-1.52.33-2.34.49s-1.66.32-2.52.47l-2.51.44L56,76.14l2.51-.33V73.67l2.7-.3v2.09L66,74.83v2.4Zm2.64-.22c.17.19.38.44.63.76s.53.67.81,1,.56.77.84,1.17.52.78.74,1.14l-2.29,1.77c-.18-.34-.39-.72-.63-1.12s-.5-.81-.77-1.2-.53-.76-.79-1.11-.49-.65-.7-.88Z"/><path d="M82.09,73V75.1L67.87,77V74.83l3.18-.42.24-1L69,73.77V71.94l2.77-.37.2-.85-3.3.44V69l12.71-1.67v2.13l-6.66.88-.2.85,5.81-.77-.14,2.77ZM69.28,77.49,80.69,76v5.46L69.28,83Zm2.51,3,6.26-.82V78.42l-6.26.82Zm2-6.44,3.77-.5.06-.92L74,73.1Z"/><path d="M88.59,75.53c-.17.36-.38.77-.63,1.22s-.53.92-.82,1.4-.58.93-.87,1.38-.57.86-.83,1.22l-2.27-1.09c.26-.35.54-.75.84-1.18s.59-.88.87-1.32.54-.89.77-1.32.42-.82.57-1.15Zm3.87-1.79v4a4,4,0,0,1-.13,1.14,1.58,1.58,0,0,1-.44.7,2.26,2.26,0,0,1-.78.45c-.32.11-.71.22-1.18.33l-1.14.28L88,78.12l.87-.21a2.18,2.18,0,0,0,.7-.26.63.63,0,0,0,.2-.54v-3l-5.44.71.57-7.52c.6-.07,1.24-.17,1.91-.27l2-.33,2.08-.38,2-.4c.65-.13,1.25-.26,1.82-.4s1.08-.26,1.52-.38l.54,2.56-2,.46c-.74.17-1.52.33-2.34.49l-2.53.47c-.85.16-1.69.3-2.5.44L87.25,72l2.51-.33V69.55l2.7-.3v2.09l4.79-.63v2.4Zm2.64-.22c.17.19.38.44.63.76l.81,1q.42.57.84,1.17c.27.4.52.78.74,1.14l-2.29,1.77c-.18-.34-.39-.72-.63-1.12s-.5-.81-.77-1.2-.53-.76-.79-1.11a11.18,11.18,0,0,0-.71-.88Z"/></g></g></g></g></g></svg>