<svg xmlns="http://www.w3.org/2000/svg" xmlns:xlink="http://www.w3.org/1999/xlink" viewBox="0 0 150 150.04"><defs><style>.cls-1,.cls-2{fill:none;}.cls-2{stroke:#fff;}.cls-2,.cls-9{stroke-miterlimit:10;stroke-width:0.1px;}.cls-3{opacity:0;}.cls-4{fill:#000714;}.cls-5{opacity:0.1;fill:url(#新建图案);}.cls-6{fill:url(#未命名的渐变_74);}.cls-7{opacity:0.12;}.cls-8,.cls-9{fill:#7af;}.cls-9{stroke:#7af;}.cls-10{opacity:0.2;}</style><pattern id="新建图案" data-name="新建图案" width="18.57" height="32.16" patternTransform="translate(1290.07 1196.96)" patternUnits="userSpaceOnUse" viewBox="0 0 18.57 32.16"><rect class="cls-1" width="18.57" height="32.16"/><polyline class="cls-2" points="18.57 21.44 18.57 32.16 18.57 42.88"/><polyline class="cls-2" points="9.29 26.8 18.57 32.16 27.85 37.51 27.85 37.52"/><polyline class="cls-2" points="9.29 37.52 9.29 37.51 18.57 32.16 27.85 26.8"/><polygon class="cls-2" points="27.85 37.52 27.85 26.8 18.57 21.44 9.28 26.8 9.28 37.52 18.57 42.88 27.85 37.52"/><polyline class="cls-2" points="0 21.44 0 32.16 0 42.88"/><polyline class="cls-2" points="-9.28 26.8 0 32.16 9.28 37.51 9.28 37.52"/><polyline class="cls-2" points="-9.28 37.52 -9.28 37.51 0 32.16 9.28 26.8"/><polygon class="cls-2" points="9.28 37.52 9.28 26.8 0 21.44 -9.29 26.8 -9.29 37.52 0 42.88 9.28 37.52"/><polyline class="cls-2" points="18.57 10.72 27.85 16.08 37.13 21.43 37.13 21.44"/><polyline class="cls-2" points="18.57 21.44 18.57 21.43 27.85 16.08 37.13 10.72"/><polygon class="cls-2" points="37.14 21.44 37.14 10.72 27.85 5.36 18.57 10.72 18.57 21.44 27.85 26.8 37.14 21.44"/><polyline class="cls-2" points="9.29 5.36 9.29 16.08 9.29 26.8"/><polyline class="cls-2" points="0.01 10.72 9.29 16.08 18.57 21.43 18.57 21.44"/><polyline class="cls-2" points="0.01 21.44 0.01 21.43 9.29 16.08 18.57 10.72"/><polygon class="cls-2" points="18.57 21.44 18.57 10.72 9.28 5.36 0 10.72 0 21.44 9.28 26.8 18.57 21.44"/><polyline class="cls-2" points="-18.56 10.72 -9.28 16.08 0 21.43 0 21.44"/><polyline class="cls-2" points="-18.56 21.44 -18.56 21.43 -9.28 16.08 0 10.72"/><polygon class="cls-2" points="0 21.44 0 10.72 -9.29 5.36 -18.57 10.72 -18.57 21.44 -9.29 26.8 0 21.44"/><polyline class="cls-2" points="18.57 -10.72 18.57 0 18.57 10.72"/><polyline class="cls-2" points="9.29 -5.36 18.57 0 27.85 5.35 27.85 5.36"/><polyline class="cls-2" points="9.29 5.36 9.29 5.35 18.57 0 27.85 -5.36"/><polygon class="cls-2" points="27.85 5.36 27.85 -5.36 18.57 -10.72 9.28 -5.36 9.28 5.36 18.57 10.72 27.85 5.36"/><polyline class="cls-2" points="0 -10.72 0 0 0 10.72"/><polyline class="cls-2" points="-9.28 -5.36 0 0 9.28 5.35 9.28 5.36"/><polyline class="cls-2" points="-9.28 5.36 -9.28 5.35 0 0 9.28 -5.36"/><polygon class="cls-2" points="9.28 5.36 9.28 -5.36 0 -10.72 -9.29 -5.36 -9.29 5.36 0 10.72 9.28 5.36"/></pattern><linearGradient id="未命名的渐变_74" x1="1156.18" y1="116.48" x2="1201.57" y2="37.86" gradientTransform="matrix(-1, 0, 0, 1, 1257.43, 0)" gradientUnits="userSpaceOnUse"><stop offset="0" stop-color="#7af" stop-opacity="0.6"/><stop offset="0.01" stop-color="#75a9ff" stop-opacity="0.58"/><stop offset="0.18" stop-color="#59a0ff" stop-opacity="0.41"/><stop offset="0.35" stop-color="#4299ff" stop-opacity="0.26"/><stop offset="0.52" stop-color="#3093ff" stop-opacity="0.15"/><stop offset="0.68" stop-color="#238fff" stop-opacity="0.07"/><stop offset="0.84" stop-color="#1c8dff" stop-opacity="0.02"/><stop offset="1" stop-color="#198cff" stop-opacity="0"/></linearGradient></defs><title>墙体1</title><g id="图层_2" data-name="图层 2"><g id="图元"><g id="墙体1"><g class="cls-3"><rect class="cls-4" y="0.04" width="150" height="150"/><rect id="网格" class="cls-5" y="0.04" width="150" height="150"/></g><g id="编组"><path class="cls-6" d="M43.08,45.24V150L114,109.11V4.28Z"/><g class="cls-7"><polygon class="cls-8" points="106.84 0.04 35.98 40.95 43.08 45.12 114 4.18 106.84 0.04"/></g><line class="cls-9" x1="114" y1="4.18" x2="43.08" y2="45.12"/><line class="cls-9" x1="35.98" y1="40.95" x2="106.84" y2="0.04"/><g class="cls-10"><path d="M57.3,79.69c-.17.36-.38.77-.63,1.22s-.52.92-.81,1.4-.59.94-.88,1.39l-.82,1.21-2.28-1.09c.27-.35.55-.74.85-1.18s.59-.87.87-1.32.53-.89.76-1.32.42-.81.57-1.15Zm3.87-1.79v4A3.88,3.88,0,0,1,61,83a1.62,1.62,0,0,1-.44.71,2.24,2.24,0,0,1-.78.44q-.48.16-1.17.33l-1.14.28-.81-2.52.87-.2a2.4,2.4,0,0,0,.7-.27.59.59,0,0,0,.2-.53v-3L53,79l.56-7.51c.61-.08,1.24-.17,1.92-.28l2-.33c.69-.12,1.39-.24,2.08-.38s1.37-.26,2-.4l1.81-.39c.57-.14,1.08-.26,1.52-.38l.54,2.55-2,.46c-.74.17-1.52.33-2.34.49l-2.52.48-2.51.44L56,76.19l2.51-.33V73.71l2.7-.29V75.5L66,74.87v2.4Zm2.64-.22c.17.19.38.44.63.76s.53.67.81,1l.84,1.17c.27.4.52.78.74,1.14l-2.29,1.78c-.18-.35-.39-.72-.63-1.13s-.5-.8-.77-1.2-.53-.76-.79-1.11-.49-.64-.7-.88Z"/><path d="M82.09,73v2.15L67.87,77V74.87l3.18-.42.24-.94-2.33.3V72l2.77-.37.2-.84-3.3.43V69.07l12.71-1.68v2.14l-6.66.87-.2.85,5.81-.76-.14,2.77ZM69.28,77.53,80.69,76V81.5L69.28,83Zm2.51,3,6.26-.82V78.46l-6.26.83Zm2-6.44,3.77-.5.06-.92-3.6.47Z"/><path d="M88.59,75.57q-.25.54-.63,1.23c-.26.45-.53.91-.82,1.39s-.58.94-.87,1.39-.57.85-.83,1.21L83.17,79.7c.26-.35.54-.74.84-1.18s.59-.87.87-1.32.54-.89.77-1.32.42-.81.57-1.15Zm3.87-1.79v4a3.88,3.88,0,0,1-.13,1.14,1.62,1.62,0,0,1-.44.71,2.24,2.24,0,0,1-.78.44c-.32.11-.71.22-1.18.34l-1.14.27L88,78.17l.87-.21a2.4,2.4,0,0,0,.7-.27.61.61,0,0,0,.2-.53v-3l-5.44.71.57-7.51c.6-.08,1.24-.17,1.91-.28l2-.33c.69-.12,1.38-.24,2.08-.38l2-.39,1.82-.4,1.52-.38.54,2.55-2,.46c-.74.17-1.52.33-2.34.49l-2.53.48-2.5.44-.17,2.47,2.51-.33V69.59l2.7-.29v2.08l4.79-.63v2.4Zm2.64-.22c.17.19.38.45.63.76l.81,1.05q.42.57.84,1.17c.27.4.52.78.74,1.14l-2.29,1.78c-.18-.35-.39-.72-.63-1.13s-.5-.8-.77-1.19-.53-.77-.79-1.12a11.18,11.18,0,0,0-.71-.88Z"/></g></g></g></g></g></svg>