<svg xmlns="http://www.w3.org/2000/svg" xmlns:xlink="http://www.w3.org/1999/xlink" viewBox="0 0 150 150.14"><defs><style>.cls-1,.cls-2,.cls-9{fill:none;}.cls-2{stroke:#fff;}.cls-10,.cls-11,.cls-12,.cls-13,.cls-2,.cls-27,.cls-6,.cls-9{stroke-miterlimit:10;stroke-width:0.1px;}.cls-3{opacity:0;}.cls-4{fill:#000714;}.cls-5{opacity:0.1;fill:url(#新建图案);}.cls-10,.cls-11,.cls-12,.cls-13,.cls-27,.cls-6,.cls-9{stroke:#7af;}.cls-6{fill:url(#未命名的渐变_17);}.cls-7{opacity:0.12;}.cls-8{fill:#7af;}.cls-10{fill:url(#未命名的渐变_17-2);}.cls-11{fill:url(#未命名的渐变_17-3);}.cls-12{fill:url(#未命名的渐变_17-4);}.cls-13{fill:url(#未命名的渐变_17-5);}.cls-14{isolation:isolate;}.cls-15{fill:url(#未命名的渐变_27);}.cls-16{fill:url(#未命名的渐变_60);}.cls-17{fill:url(#未命名的渐变_2);}.cls-18{fill:url(#未命名的渐变_17-6);}.cls-19{fill:url(#未命名的渐变_27-2);}.cls-20{fill:url(#未命名的渐变_2-2);}.cls-21{fill:url(#未命名的渐变_27-3);}.cls-22{fill:url(#未命名的渐变_60-2);}.cls-23{fill:url(#未命名的渐变_2-3);}.cls-24{fill:url(#未命名的渐变_17-7);}.cls-25{fill:url(#未命名的渐变_27-4);}.cls-26{fill:url(#未命名的渐变_2-4);}.cls-27{fill:url(#未命名的渐变_17-8);}.cls-28{opacity:0.2;}</style><pattern id="新建图案" data-name="新建图案" width="18.57" height="32.16" patternTransform="translate(1149.78 1196.96)" patternUnits="userSpaceOnUse" viewBox="0 0 18.57 32.16"><rect class="cls-1" width="18.57" height="32.16"/><polyline class="cls-2" points="18.57 21.44 18.57 32.16 18.57 42.88"/><polyline class="cls-2" points="9.29 26.8 18.57 32.16 27.85 37.51 27.85 37.52"/><polyline class="cls-2" points="9.29 37.52 9.29 37.51 18.57 32.16 27.85 26.8"/><polygon class="cls-2" points="27.85 37.52 27.85 26.8 18.57 21.44 9.28 26.8 9.28 37.52 18.57 42.88 27.85 37.52"/><polyline class="cls-2" points="0 21.44 0 32.16 0 42.88"/><polyline class="cls-2" points="-9.28 26.8 0 32.16 9.28 37.51 9.28 37.52"/><polyline class="cls-2" points="-9.28 37.52 -9.28 37.51 0 32.16 9.28 26.8"/><polygon class="cls-2" points="9.28 37.52 9.28 26.8 0 21.44 -9.29 26.8 -9.29 37.52 0 42.88 9.28 37.52"/><polyline class="cls-2" points="18.57 10.72 27.85 16.08 37.13 21.43 37.13 21.44"/><polyline class="cls-2" points="18.57 21.44 18.57 21.43 27.85 16.08 37.13 10.72"/><polygon class="cls-2" points="37.14 21.44 37.14 10.72 27.85 5.36 18.57 10.72 18.57 21.44 27.85 26.8 37.14 21.44"/><polyline class="cls-2" points="9.29 5.36 9.29 16.08 9.29 26.8"/><polyline class="cls-2" points="0.01 10.72 9.29 16.08 18.57 21.43 18.57 21.44"/><polyline class="cls-2" points="0.01 21.44 0.01 21.43 9.29 16.08 18.57 10.72"/><polygon class="cls-2" points="18.57 21.44 18.57 10.72 9.28 5.36 0 10.72 0 21.44 9.28 26.8 18.57 21.44"/><polyline class="cls-2" points="-18.56 10.72 -9.28 16.08 0 21.43 0 21.44"/><polyline class="cls-2" points="-18.56 21.44 -18.56 21.43 -9.28 16.08 0 10.72"/><polygon class="cls-2" points="0 21.44 0 10.72 -9.29 5.36 -18.57 10.72 -18.57 21.44 -9.29 26.8 0 21.44"/><polyline class="cls-2" points="18.57 -10.72 18.57 0 18.57 10.72"/><polyline class="cls-2" points="9.29 -5.36 18.57 0 27.85 5.35 27.85 5.36"/><polyline class="cls-2" points="9.29 5.36 9.29 5.35 18.57 0 27.85 -5.36"/><polygon class="cls-2" points="27.85 5.36 27.85 -5.36 18.57 -10.72 9.28 -5.36 9.28 5.36 18.57 10.72 27.85 5.36"/><polyline class="cls-2" points="0 -10.72 0 0 0 10.72"/><polyline class="cls-2" points="-9.28 -5.36 0 0 9.28 5.35 9.28 5.36"/><polyline class="cls-2" points="-9.28 5.36 -9.28 5.35 0 0 9.28 -5.36"/><polygon class="cls-2" points="9.28 5.36 9.28 -5.36 0 -10.72 -9.29 -5.36 -9.29 5.36 0 10.72 9.28 5.36"/></pattern><linearGradient id="未命名的渐变_17" x1="805.42" y1="116.49" x2="850.81" y2="37.87" gradientTransform="matrix(-1, 0, 0, 1, 906.67, 0)" gradientUnits="userSpaceOnUse"><stop offset="0" stop-color="#7af" stop-opacity="0.6"/><stop offset="0.01" stop-color="#75a9ff" stop-opacity="0.58"/><stop offset="0.18" stop-color="#59a0ff" stop-opacity="0.41"/><stop offset="0.35" stop-color="#4299ff" stop-opacity="0.26"/><stop offset="0.52" stop-color="#3093ff" stop-opacity="0.15"/><stop offset="0.68" stop-color="#238fff" stop-opacity="0.07"/><stop offset="0.84" stop-color="#1c8dff" stop-opacity="0.02"/><stop offset="1" stop-color="#198cff" stop-opacity="0"/></linearGradient><linearGradient id="未命名的渐变_17-2" x1="822.74" y1="97.95" x2="824.3" y2="97.95" xlink:href="#未命名的渐变_17"/><linearGradient id="未命名的渐变_17-3" x1="814.15" y1="96.33" x2="823.8" y2="96.33" xlink:href="#未命名的渐变_17"/><linearGradient id="未命名的渐变_17-4" x1="832.84" y1="103.84" x2="834.39" y2="103.84" xlink:href="#未命名的渐变_17"/><linearGradient id="未命名的渐变_17-5" x1="831.56" y1="106.39" x2="841.21" y2="106.39" xlink:href="#未命名的渐变_17"/><linearGradient id="未命名的渐变_27" x1="836.27" y1="98.66" x2="851.09" y2="73" gradientTransform="matrix(-1, 0, 0, 1, 906.67, 0)" gradientUnits="userSpaceOnUse"><stop offset="0" stop-color="#198cff" stop-opacity="0"/><stop offset="0.18" stop-color="#1d8dff" stop-opacity="0.02"/><stop offset="0.39" stop-color="#2991ff" stop-opacity="0.07"/><stop offset="0.6" stop-color="#3e98ff" stop-opacity="0.16"/><stop offset="0.82" stop-color="#5aa1ff" stop-opacity="0.28"/><stop offset="1" stop-color="#7af" stop-opacity="0.4"/></linearGradient><linearGradient id="未命名的渐变_60" x1="840.42" y1="101.73" x2="847.33" y2="101.73" gradientTransform="matrix(-1, 0, 0, 1, 906.67, 0)" gradientUnits="userSpaceOnUse"><stop offset="0" stop-color="#7af" stop-opacity="0.6"/><stop offset="1" stop-color="#198cff" stop-opacity="0"/></linearGradient><linearGradient id="未命名的渐变_2" x1="847.61" y1="95.85" x2="833.75" y2="71.83" gradientTransform="matrix(-1, 0, 0, 1, 906.67, 0)" gradientUnits="userSpaceOnUse"><stop offset="0" stop-color="#7af" stop-opacity="0.4"/><stop offset="0.18" stop-color="#5aa1ff" stop-opacity="0.28"/><stop offset="0.4" stop-color="#3e98ff" stop-opacity="0.16"/><stop offset="0.61" stop-color="#2991ff" stop-opacity="0.07"/><stop offset="0.82" stop-color="#1d8dff" stop-opacity="0.02"/><stop offset="1" stop-color="#198cff" stop-opacity="0"/></linearGradient><linearGradient id="未命名的渐变_17-6" x1="839.53" y1="85.83" x2="847.85" y2="85.83" xlink:href="#未命名的渐变_17"/><linearGradient id="未命名的渐变_27-2" x1="839.59" y1="68.62" x2="848.3" y2="68.62" xlink:href="#未命名的渐变_27"/><linearGradient id="未命名的渐变_2-2" x1="855.42" y1="100.87" x2="840.65" y2="75.29" xlink:href="#未命名的渐变_2"/><linearGradient id="未命名的渐变_27-3" x1="804.82" y1="80.62" x2="819.62" y2="54.97" xlink:href="#未命名的渐变_27"/><linearGradient id="未命名的渐变_60-2" x1="808.97" y1="83.7" x2="815.88" y2="83.7" xlink:href="#未命名的渐变_60"/><linearGradient id="未命名的渐变_2-3" x1="816.16" y1="77.82" x2="802.3" y2="53.8" xlink:href="#未命名的渐变_2"/><linearGradient id="未命名的渐变_17-7" x1="808.07" y1="67.8" x2="816.4" y2="67.8" xlink:href="#未命名的渐变_17"/><linearGradient id="未命名的渐变_27-4" x1="808.14" y1="50.59" x2="816.85" y2="50.59" xlink:href="#未命名的渐变_27"/><linearGradient id="未命名的渐变_2-4" x1="823.98" y1="82.84" x2="809.21" y2="57.26" xlink:href="#未命名的渐变_2"/><linearGradient id="未命名的渐变_17-8" x1="78.15" y1="77.18" x2="78.93" y2="77.18" gradientTransform="matrix(1, 0, 0, 1, 0, 0)" xlink:href="#未命名的渐变_17"/></defs><title>门1</title><g id="图层_2" data-name="图层 2"><g id="图元"><g id="门1"><g class="cls-3"><rect class="cls-4" y="0.06" width="150" height="150"/><rect id="网格" class="cls-5" y="0.06" width="150" height="150"/></g><g id="编组"><path class="cls-6" d="M86.4,20.24l-7.47,4.32-.52.31L43.08,45.26v104.8l32.67-18.89,2.4-1.37.52-.29L114,109.12V4.3ZM58.82,74.49V71.13l8.27-4.76v3.31l0,30.83L58.9,105.3Zm39.78,8-8.25,4.78-.08-34.14,8.27-4.79.08,34.15Z"/><g class="cls-7"><polygon class="cls-8" points="43.13 45.16 36.05 41.02 35.98 40.97 106.84 0.06 114 4.19 43.13 45.16"/></g><polygon class="cls-9" points="43.13 45.16 36.05 41.02 35.98 40.97 106.84 0.06 114 4.19 43.13 45.16"/><path class="cls-10" d="M83.14,97.06c.42-.24.78-.06.79.43a1.71,1.71,0,0,1-.79,1.34c-.42.25-.77,0-.77-.44A1.69,1.69,0,0,1,83.14,97.06Z"/><path class="cls-11" d="M83.33,97.75l1.43.83a1.53,1.53,0,0,0,1.38,0l5.45-3.15c.38-.22.38-.58,0-.79l-1.44-.84.45-.25,1.43.83c.63.37.63,1,0,1.32l-5.46,3.15a2.53,2.53,0,0,1-2.29,0L82.87,98Z"/><path class="cls-12" d="M73,103c.43-.24.79,0,.79.44a1.75,1.75,0,0,1-.78,1.34c-.43.24-.77,0-.77-.45A1.68,1.68,0,0,1,73,103Z"/><path class="cls-13" d="M65.92,107.81l1.44.83a1.5,1.5,0,0,0,1.37,0l5.45-3.15c.38-.22.38-.58,0-.79l-1.43-.84.44-.25,1.43.83a.7.7,0,0,1,0,1.32l-5.46,3.15a2.51,2.51,0,0,1-2.28,0l-1.44-.84Z"/><g class="cls-14"><path class="cls-15" d="M67.09,69.68V66.37l-8.27,4.76v3.36l.08,30.81,8.24-4.79Z"/><polygon class="cls-16" points="65.8 99.74 66.25 100 59.79 103.73 59.34 103.47 65.8 99.74"/><polygon class="cls-17" points="66.19 67.94 66.25 100 65.8 99.74 65.73 67.68 66.19 67.94"/><path class="cls-18" d="M67.09,69.68V66.37l-8.27,4.76v3.36l.08,30.81,8.24-4.79Zm-7.31,34v-.52L59.73,74v-2.3l6-3.46.47-.26V70.2l0,29.8Z"/><polygon class="cls-19" points="66.63 66.11 67.08 66.37 58.82 71.14 58.37 70.88 66.63 66.11"/><polygon class="cls-20" points="58.82 71.14 58.89 105.29 58.44 105.02 58.37 70.88 58.82 71.14"/></g><g class="cls-14"><path class="cls-21" d="M98.54,48.33l-8.27,4.79.08,34.14,8.25-4.78Z"/><polygon class="cls-22" points="97.24 81.7 97.7 81.97 91.24 85.7 90.79 85.43 97.24 81.7"/><polygon class="cls-23" points="97.63 49.91 97.7 81.97 97.24 81.7 97.18 49.65 97.63 49.91"/><path class="cls-24" d="M98.54,48.33l-8.27,4.79.08,34.14,8.25-4.78ZM91.23,85.71v-.55l0-31.53,6-3.46.47-.26,0,32.05Z"/><polygon class="cls-25" points="98.08 48.07 98.53 48.34 90.27 53.1 89.82 52.84 98.08 48.07"/><polygon class="cls-26" points="90.27 53.1 90.34 87.25 89.89 86.99 89.82 52.84 90.27 53.1"/></g><polygon class="cls-27" points="78.93 24.56 78.93 24.58 78.67 129.51 78.15 129.8 78.41 24.89 78.41 24.87 78.93 24.56"/><g class="cls-28"><path d="M57.3,79.71c-.17.36-.38.76-.63,1.22s-.52.92-.81,1.39-.59.94-.88,1.39l-.82,1.21-2.28-1.09c.27-.35.55-.74.85-1.17s.59-.88.87-1.33.53-.88.76-1.32.42-.81.57-1.14Zm3.87-1.79v4A4,4,0,0,1,61,83.06a1.58,1.58,0,0,1-.44.7,2.24,2.24,0,0,1-.78.44c-.32.11-.71.23-1.17.34l-1.14.28L56.7,82.3l.87-.21a2.4,2.4,0,0,0,.7-.27.59.59,0,0,0,.2-.53v-3L53,79l.56-7.52,1.92-.27,2-.34c.69-.11,1.39-.24,2.08-.37l2-.4c.64-.13,1.25-.27,1.81-.4s1.08-.26,1.52-.38l.54,2.55c-.6.14-1.27.3-2,.46s-1.52.34-2.34.5l-2.52.47-2.51.44L56,76.2l2.51-.33V73.72l2.7-.29v2.09L66,74.89v2.4Zm2.64-.22c.17.19.38.44.63.76s.53.67.81,1.05.56.77.84,1.17.52.78.74,1.14l-2.29,1.77c-.18-.35-.39-.72-.63-1.13s-.5-.8-.77-1.19-.53-.76-.79-1.11-.49-.65-.7-.88Z"/><path d="M82.09,73v2.15L67.87,77V74.89l3.18-.42.24-1L69,73.83V72l2.77-.36.2-.85-3.3.43V69.08l12.71-1.67v2.13l-6.66.88-.2.85,5.81-.77-.14,2.77ZM69.28,77.55,80.69,76v5.47L69.28,83Zm2.51,3,6.26-.82V78.48l-6.26.82Zm2-6.45,3.77-.49.06-.93-3.6.48Z"/><path d="M88.59,75.59c-.17.36-.38.76-.63,1.22s-.53.92-.82,1.39-.58.94-.87,1.39-.57.86-.83,1.22l-2.27-1.1q.39-.52.84-1.17c.31-.44.59-.88.87-1.33s.54-.88.77-1.31.42-.82.57-1.15Zm3.87-1.79v4a4,4,0,0,1-.13,1.14,1.58,1.58,0,0,1-.44.7,2.24,2.24,0,0,1-.78.44,12,12,0,0,1-1.18.34l-1.14.28L88,78.18l.87-.21a2.15,2.15,0,0,0,.7-.27.6.6,0,0,0,.2-.53v-3l-5.44.72.57-7.52,1.91-.27,2-.34c.69-.11,1.38-.24,2.08-.37l2-.4c.65-.13,1.25-.27,1.82-.4s1.08-.26,1.52-.38l.54,2.55c-.6.15-1.28.3-2,.47s-1.52.33-2.34.49l-2.53.47c-.85.16-1.69.3-2.5.44l-.17,2.47,2.51-.33V69.6l2.7-.29V71.4l4.79-.63v2.4Zm2.64-.22c.17.19.38.44.63.76l.81,1q.42.57.84,1.17c.27.4.52.78.74,1.14l-2.29,1.77c-.18-.34-.39-.72-.63-1.12s-.5-.81-.77-1.2-.53-.76-.79-1.11a9.59,9.59,0,0,0-.71-.88Z"/></g></g></g></g></g></svg>